<svg xmlns="http://www.w3.org/2000/svg" xmlns:xlink="http://www.w3.org/1999/xlink" width="48" height="48" viewBox="0 0 48 48"><defs><symbol id="a" viewBox="0 0 16 15.605"><path d="M8,0A8,8,0,0,0,5.471,15.591c.4.074.546-.173.546-.385,0-.19-.007-.693-.011-1.361-2.225.483-2.694-1.072-2.694-1.072A2.118,2.118,0,0,0,2.423,11.6c-.726-.5.055-.486.055-.486A1.683,1.683,0,0,1,3.7,11.94a1.7,1.7,0,0,0,2.328.665,1.707,1.707,0,0,1,.508-1.069c-1.777-.2-3.644-.889-3.644-3.954a3.094,3.094,0,0,1,.823-2.147A2.875,2.875,0,0,1,3.8,3.318s.671-.215,2.2.82a7.588,7.588,0,0,1,4.005,0c1.528-1.035,2.2-.82,2.2-.82a2.878,2.878,0,0,1,.08,2.117A3.089,3.089,0,0,1,13.1,7.582c0,3.073-1.87,3.749-3.653,3.947a1.908,1.908,0,0,1,.543,1.482c0,1.069-.009,1.932-.009,2.2,0,.213.144.462.55.384A8,8,0,0,0,8,0Z" fill="#181616" fill-rule="evenodd"/></symbol></defs><title>assets</title><rect width="48" height="48" fill="none"/><use width="16" height="15.605" transform="translate(8 8) scale(2)" xlink:href="#a"/></svg>