<svg xmlns="http://www.w3.org/2000/svg" xmlns:xlink="http://www.w3.org/1999/xlink" width="352" height="176" viewBox="0 0 352 176"><defs><style>.a{fill:none;}.b{fill:#737373;}.c{fill:#f25022;}.d{fill:#7fba00;}.e{fill:#00a4ef;}.f{fill:#ffb900;}.g{clip-path:url(#a);}.h,.y{opacity:0.2;}.i{clip-path:url(#b);}.j{fill:url(#c);}.k{fill:url(#d);}.l{fill:url(#e);}.m{fill:url(#f);}.n,.x{fill:#fff;}.n,.r,.s{fill-rule:evenodd;}.o{fill:#a3a3a3;}.p{fill:#777;}.q{clip-path:url(#g);}.s{fill:#505050;}.t{fill:#333;opacity:0.75;}.t,.y{isolation:isolate;}.u{fill:#f2f2f2;}.v{fill:#666;}.w{fill:#0078d7;}</style><clipPath id="a"><rect class="a" width="352" height="176"/></clipPath><clipPath id="b"><rect class="a" y="-23.1" width="352" height="230.176"/></clipPath><radialGradient id="c" cx="268.84" cy="261.213" r="307.213" gradientTransform="matrix(1, 0, 0, -1, 0, 322)" gradientUnits="userSpaceOnUse"><stop offset="0" stop-color="#107c10"/><stop offset="1" stop-color="#c4c4c4" stop-opacity="0"/></radialGradient><radialGradient id="d" cx="-214.876" cy="-2984.919" r="0.183" gradientTransform="translate(-4034940.873 275301.48) rotate(90) scale(1280.613 1351.8)" gradientUnits="userSpaceOnUse"><stop offset="0" stop-color="#0078d4"/><stop offset="1" stop-color="#c4c4c4" stop-opacity="0"/></radialGradient><radialGradient id="e" cx="-215.607" cy="-2984.08" r="0.183" gradientTransform="translate(-3414100.377 233879.693) rotate(90) scale(1083.917 1144.2)" gradientUnits="userSpaceOnUse"><stop offset="0" stop-color="#ffb900" stop-opacity="0.75"/><stop offset="1" stop-color="#c4c4c4" stop-opacity="0"/></radialGradient><radialGradient id="f" cx="-214.699" cy="-2984.996" r="0.183" gradientTransform="translate(-3730599.373 253999.799) rotate(90) scale(1182.963 1249.8)" gradientUnits="userSpaceOnUse"><stop offset="0" stop-color="#d83b01" stop-opacity="0.75"/><stop offset="1" stop-color="#c4c4c4" stop-opacity="0"/></radialGradient><clipPath id="g"><rect class="a" x="179.3" y="33" width="126.057" height="163.9"/></clipPath><symbol id="h" viewBox="0 0 112.552 24"><path class="b" d="M46.786,19.2V4.8h-2.5V16.088h-.04L39.776,4.8H38.119L33.54,16.088h-.03V4.8H31.2V19.2h3.585L38.923,8.525h.06L43.351,19.2Zm2.091-1.095a1.322,1.322,0,0,0,.437,1.009,1.472,1.472,0,0,0,1.039.407,1.45,1.45,0,0,0,1.065-.417,1.353,1.353,0,0,0,.422-1,1.3,1.3,0,0,0-.432-.994,1.494,1.494,0,0,0-1.055-.4,1.462,1.462,0,0,0-1.053.407,1.311,1.311,0,0,0-.427.989M51.558,4.8h-2.43V15.124h2.43Zm7.371,1.768a3.342,3.342,0,0,1,1.2.251,5.055,5.055,0,0,1,1.2.662V5.222a4.839,4.839,0,0,0-1.32-.5,7.192,7.192,0,0,0-1.622-.171,4.912,4.912,0,0,0-5.132,4.68q-.009.22,0,.441a5.886,5.886,0,0,0,1.457,4.1,5.272,5.272,0,0,0,4.127,1.612,5.689,5.689,0,0,0,1.381-.176,4.572,4.572,0,0,0,1.109-.407v-2.33a4.919,4.919,0,0,1-1.15.638,3.3,3.3,0,0,1-1.2.226,3.047,3.047,0,0,1-2.32-.934,3.513,3.513,0,0,1-.884-2.521,3.356,3.356,0,0,1,.849-2.44,3.062,3.062,0,0,1,2.3-.873m9.319,8.726a3.056,3.056,0,0,0,.523-.04,2.2,2.2,0,0,0,.391-.1V12.692a2.166,2.166,0,0,1-.557.267,2.763,2.763,0,0,1-.889.125,1.886,1.886,0,0,1-1.511-.753,3.618,3.618,0,0,1-.618-2.32V4.8h-2.43V15.124h2.43V13.5h.04a2.845,2.845,0,0,0,1,1.32,2.721,2.721,0,0,0,1.616.477m1.046-5.483a5.594,5.594,0,0,0,1.446,4.057,5.325,5.325,0,0,0,4.017,1.5,4.952,4.952,0,0,0,3.781-1.441,5.441,5.441,0,0,0,1.36-3.892,5.489,5.489,0,0,0-1.446-4,5.235,5.235,0,0,0-3.936-1.486A5.149,5.149,0,0,0,70.7,5.963a5.2,5.2,0,0,0-1.411,3.851m2.53.08a3.687,3.687,0,0,1,.734-2.47,2.613,2.613,0,0,1,2.1-.853,2.445,2.445,0,0,1,2.019.853,3.949,3.949,0,0,1,.693,2.531,3.812,3.812,0,0,1-.718,2.515,2.491,2.491,0,0,1-2.013.849,2.548,2.548,0,0,1-2.075-.889,3.869,3.869,0,0,1-.738-2.536m11.69,2.521a1.044,1.044,0,0,1,.331-.819,5.7,5.7,0,0,1,1.466-.747,4.985,4.985,0,0,0,2.044-1.311,2.722,2.722,0,0,0,.587-1.762,2.831,2.831,0,0,0-1.12-2.34,4.747,4.747,0,0,0-3.027-.884,7.216,7.216,0,0,0-1.421.156,6.273,6.273,0,0,0-1.321.4V7.491a5.974,5.974,0,0,1,1.426-.732,4.16,4.16,0,0,1,1.386-.272,2.471,2.471,0,0,1,1.215.231.826.826,0,0,1,.392.773,1.074,1.074,0,0,1-.407.849,6.007,6.007,0,0,1-1.541.8,4.759,4.759,0,0,0-1.905,1.26,2.765,2.765,0,0,0-.563,1.787,2.824,2.824,0,0,0,1.11,2.3,4.427,4.427,0,0,0,2.877.9,6.883,6.883,0,0,0,1.215-.121,5.365,5.365,0,0,0,1.125-.311V12.64a5.179,5.179,0,0,1-1.125.553,3.773,3.773,0,0,1-1.275.231,1.865,1.865,0,0,1-1.08-.271.86.86,0,0,1-.386-.744m5.472-2.6a5.594,5.594,0,0,0,1.446,4.057,5.325,5.325,0,0,0,4.017,1.5,4.952,4.952,0,0,0,3.781-1.441,5.442,5.442,0,0,0,1.361-3.892,5.489,5.489,0,0,0-1.446-4,5.237,5.237,0,0,0-3.937-1.486A5.148,5.148,0,0,0,90.4,5.96a5.2,5.2,0,0,0-1.411,3.851m2.531.08a3.686,3.686,0,0,1,.733-2.47,2.613,2.613,0,0,1,2.1-.853,2.444,2.444,0,0,1,2.018.853,3.949,3.949,0,0,1,.693,2.531,3.806,3.806,0,0,1-.718,2.515,2.491,2.491,0,0,1-2.013.849,2.547,2.547,0,0,1-2.074-.889,3.869,3.869,0,0,1-.738-2.536m16.136,3.244h-3.619V4.8h-2.46v8.335H99.846v1.989h1.728V16.56a3.572,3.572,0,0,0,1.059,2.666,3.718,3.718,0,0,0,2.717,1.039,6.027,6.027,0,0,0,.783-.045,3.085,3.085,0,0,0,.6-.136v-2.1a2.557,2.557,0,0,1-.421.17,2.2,2.2,0,0,1-.693.1,1.47,1.47,0,0,1-1.176-.477,2.106,2.106,0,0,1-.411-1.411V15.124h3.619v2.319l2.441.743V15.124h2.46V13.135h-2.46V8.3a2.04,2.04,0,0,1,.346-1.346,1.387,1.387,0,0,1,1.09-.391,1.631,1.631,0,0,1,.507.1,2.362,2.362,0,0,1,.517.241v-2a2.8,2.8,0,0,0-.768-.242,5.32,5.32,0,0,0-1.06-.11,3.008,3.008,0,0,0-2.3.819,3.481,3.481,0,0,0-.769,2.465Z"/><rect class="c" y="12.594" width="11.406" height="11.406"/><rect class="d" x="12.594" y="12.594" width="11.406" height="11.406"/><rect class="e" width="11.406" height="11.406"/><rect class="f" x="12.594" width="11.406" height="11.406"/></symbol></defs><g class="g"><g class="h"><g class="i"><path class="j" d="M268.84,359.5c174.234,0,315.48-133.741,315.48-298.717S443.075-237.93,268.84-237.93-46.64-104.19-46.64,60.786,94.605,359.5,268.84,359.5Z"/><path class="k" d="M72.27,363.851c136.873,0,247.83-105.114,247.83-234.779S209.143-105.707,72.27-105.707-175.56-.593-175.56,129.072-64.6,363.851,72.27,363.851Z"/><path class="l" d="M283.91,378.684c115.852,0,209.77-88.969,209.77-198.718S399.762-18.752,283.91-18.752,74.14,70.217,74.14,179.966,168.057,378.684,283.91,378.684Z"/><path class="m" d="M48.73,235.975c126.545,0,229.13-97.1,229.13-216.876S175.275-197.78,48.73-197.78-180.4-100.679-180.4,19.1-77.815,235.975,48.73,235.975Z"/></g></g><polygon class="n" points="59.95 9.9 209.55 9.9 209.55 112.969 59.95 112.969 59.95 9.9 59.95 9.9"/><use width="112.552" height="24" transform="matrix(0.501, 0, 0, -0.501, 71.958, 33.92)" xlink:href="#h"/><path class="o" d="M86.61,56.733h66.044a2,2,0,0,1,2,2h0a2,2,0,0,1-2,2H86.61a2,2,0,0,1-2-2h0A2,2,0,0,1,86.61,56.733Z"/><path class="o" d="M86.61,65.238h53.035a2,2,0,0,1,2,2h0a2,2,0,0,1-2,2H86.61a2,2,0,0,1-2-2h0A2,2,0,0,1,86.61,65.238Z"/><path class="p" d="M74.96,43.422H135a3,3,0,0,1,3,3h0a3,3,0,0,1-3,3H74.96a3,3,0,0,1-3-3h0A3,3,0,0,1,74.96,43.422Z"/><g class="q"><path class="r" d="M305.36,251.609c0,2.478-1.855,3.845-4.675,3.845H185.109c-2.819,0-5.809-1.439-5.809-3.918V37.879c0-2.974,2.99-4.879,5.809-4.879H300.685c2.819,0,4.675,1.905,4.675,4.879v213.73Z"/><polygon class="n" points="183.345 44.123 301.313 44.123 301.313 228.827 183.345 228.827 183.345 44.123 183.345 44.123"/><path class="s" d="M281.785,38.445a3.025,3.025,0,1,1,3.188,2.852c-.054,0-.109.005-.163.005A2.943,2.943,0,0,1,281.785,38.445Z"/><rect class="t" x="183.345" y="44.123" width="117.968" height="173.582"/></g><rect class="u" x="189.748" y="76.48" width="106.171" height="53.928"/><rect class="o" x="213.679" y="91.31" width="36.402" height="2.697" rx="1.348"/><rect class="o" x="213.679" y="97.377" width="38.424" height="2.697" rx="1.348"/><path class="v" d="M215.7,83.9h40.446a2.022,2.022,0,0,1,2.022,2.022h0a2.022,2.022,0,0,1-2.022,2.022H215.7a2.022,2.022,0,0,1-2.023-2.022h0A2.022,2.022,0,0,1,215.7,83.9Z"/><rect class="w" x="197.163" y="111.87" width="44.491" height="13.482"/><path class="x" d="M215.566,118.849l-.358-.388a.256.256,0,0,1,.014-.362h0l1.034-.956a.249.249,0,0,1,.172-.068.245.245,0,0,1,.186.083l2.843,3.049,4.9-6.267a.255.255,0,0,1,.2-.1.251.251,0,0,1,.156.055l1.119.863a.239.239,0,0,1,.1.165.246.246,0,0,1-.055.186l-6.285,8.046Z"/><rect class="y" x="243.34" y="111.87" width="45.165" height="13.482"/><polygon points="270.563 115.282 268.902 113.612 265.843 116.672 262.783 113.612 261.114 115.282 264.164 118.341 261.114 121.392 262.783 123.062 265.834 120.011 268.893 123.071 270.563 121.401 267.503 118.341 270.563 115.282"/><path class="w" d="M203.3,85.537a2.556,2.556,0,0,1,2.557,2.492q.765.1,1.565.275c0-.07.006-.141.006-.212a4.128,4.128,0,0,0-8.255,0c0,.067,0,.134,0,.2.458-.1.983-.194,1.565-.27A2.558,2.558,0,0,1,203.3,85.537Z"/><path class="w" d="M197.109,89.664v1.547A10.078,10.078,0,0,0,203.3,100.5a10.078,10.078,0,0,0,6.191-9.287V89.664A18.956,18.956,0,0,0,197.109,89.664Zm8.25,6.173h-4.125V95.59a2.063,2.063,0,0,1,1.4-1.953,1.546,1.546,0,1,1,1.325,0,2.063,2.063,0,0,1,1.4,1.953Z"/><path class="p" d="M76.084,57.7a1.968,1.968,0,0,1,1.968,1.919c.392.052.795.123,1.2.213,0-.055,0-.11,0-.165a3.178,3.178,0,0,0-6.355-.084q0,.042,0,.084c0,.051,0,.1,0,.154.353-.077.757-.15,1.2-.208A1.969,1.969,0,0,1,76.084,57.7Z"/><path class="p" d="M71.317,60.877v1.192a7.761,7.761,0,0,0,4.767,7.15,7.759,7.759,0,0,0,4.766-7.15V60.877A14.6,14.6,0,0,0,71.317,60.877Zm6.351,4.753H74.5v-.189a1.589,1.589,0,0,1,1.077-1.5,1.191,1.191,0,1,1,1.019,0,1.589,1.589,0,0,1,1.077,1.5Z"/><path class="o" d="M73.96,75.879H92.049a2,2,0,0,1,2,2h0a2,2,0,0,1-2,2H73.96a2,2,0,0,1-2-2h0A2,2,0,0,1,73.96,75.879Z"/></g></svg>